<?xml version="1.0" encoding="UTF-8"?>
<svg id="Layer_2" data-name="Layer 2" xmlns="http://www.w3.org/2000/svg" viewBox="0 0 1291.68 271.76">
  <defs>
    <style>
      .cls-1 {
        fill: #15a34a;
      }
    </style>
  </defs>
  <g id="Layer_1-2" data-name="Layer 1">
    <path class="cls-1" d="m185.93,56.58c-5.53-5.52-12.02-9.91-19.46-13.15-7.45-3.24-15.38-4.86-23.78-4.86-16.1,0-29.79,5.29-41.08,15.85-5.53-5.04-11.65-8.95-18.38-11.71-6.73-2.76-14.05-4.14-21.98-4.14-3.37,0-6.73.3-10.09.9-3.37.6-6.48,1.5-9.37,2.7H0v147.02h41.8v-88.64c0-5.52,1.86-10.27,5.59-14.23,3.72-3.96,8.34-5.95,13.87-5.95s10.15,1.98,13.87,5.95c3.72,3.96,5.59,8.71,5.59,14.23v88.64h41.8v-88.64c0-5.52,1.98-10.27,5.94-14.23,3.96-3.96,8.71-5.95,14.23-5.95s10.15,1.98,13.87,5.95c3.72,3.96,5.58,8.71,5.58,14.23v88.64h41.8v-88.64c0-8.65-1.62-16.76-4.86-24.32-3.24-7.57-7.63-14.11-13.15-19.64"/>
    <path class="cls-1" d="m341.31,57.84c-6.97-7.08-15.2-12.67-24.68-16.76-9.49-4.08-19.64-6.12-30.45-6.12s-20.6,2.04-30.09,6.12c-9.49,4.09-17.78,9.67-24.86,16.76-7.09,7.09-12.67,15.38-16.76,24.86-4.09,9.49-6.12,19.52-6.12,30.09s2.04,20.96,6.12,30.45c4.08,9.49,9.67,17.72,16.76,24.68,7.08,6.97,15.37,12.49,24.86,16.58,9.49,4.08,19.51,6.12,30.09,6.12s20.96-2.04,30.45-6.12c3.39-1.46,6.62-3.11,9.69-4.94,0,0,0-.02-.01-.03-1.39-3.16-.95-6.66-1-10.02-.05-2.86-.65-5.67-1.78-8.3-2.36-5.48-6.69-9.91-11.75-12.98l-9.47,7.11c3.08-4.17,2.16-8.33,1.14-10.75-1.03.55-2.1,1.06-3.2,1.52-4.32,1.8-9.01,2.7-14.05,2.7s-9.43-.9-13.87-2.7c-4.45-1.8-8.29-4.32-11.53-7.57s-5.83-7.08-7.75-11.53c-1.93-4.44-2.88-9.19-2.88-14.23s.96-9.37,2.88-13.69c1.92-4.32,4.51-8.11,7.75-11.35,3.24-3.24,7.08-5.76,11.53-7.57,4.44-1.8,9.07-2.7,13.87-2.7,5.05,0,9.73.9,14.05,2.7,4.32,1.8,8.11,4.32,11.35,7.57,3.24,3.24,5.82,7.03,7.75,11.35,1.92,4.32,2.88,8.89,2.88,13.69,0,5.05-.96,9.79-2.88,14.23-1.92,4.45-4.5,8.29-7.75,11.53-.52.52-1.05,1.01-1.6,1.49,4.05,2.38,11.61.82,11.61.82l-8.97,6.73c2.68,1.67,5.15,3.68,7.23,6.05,3.66,4.18,6.16,9.43,6.42,15.03.16,3.42-.52,7.1.89,10.35,0,0,0,0,0,.01,5.18-3.17,9.89-6.87,14.14-11.12,6.96-6.97,12.49-15.19,16.57-24.68,4.08-9.49,6.12-19.64,6.12-30.45s-2.04-20.59-6.12-30.09c-4.09-9.49-9.61-17.78-16.57-24.86"/>
    <path class="cls-1" d="m555.97,56.58c-5.53-5.52-12.02-9.91-19.46-13.15-7.45-3.24-15.38-4.86-23.78-4.86-16.09,0-29.79,5.29-41.08,15.85-5.53-5.04-11.66-8.95-18.38-11.71-6.73-2.76-14.05-4.14-21.98-4.14-3.37,0-6.73.3-10.09.9-3.37.6-6.48,1.5-9.37,2.7h-41.8v147.02h41.8v-88.64c0-5.52,1.86-10.27,5.59-14.23,3.72-3.96,8.34-5.95,13.87-5.95s10.15,1.98,13.87,5.95c3.72,3.96,5.59,8.71,5.59,14.23l.36,31.72h41.8l-.36-31.72c0-5.52,1.98-10.27,5.94-14.23s8.71-5.95,14.23-5.95,10.15,1.98,13.87,5.95c3.72,3.96,5.58,8.71,5.58,14.23v88.64h41.8v-88.64c0-8.65-1.62-16.76-4.86-24.32-3.24-7.57-7.63-14.11-13.15-19.64"/>
    <path class="cls-1" d="m699.18,115.67c11.29-6.96,23.18-14.17,35.67-21.62-.96-1.44-1.92-3.12-2.88-5.05-.96-1.68-2.04-3.6-3.24-5.77-1.2-2.16-2.52-4.56-3.96-7.21-7.21-12.01-16.46-21.38-27.75-28.11-11.29-6.72-23.66-10.09-37.11-10.09-10.57,0-20.54,2.04-29.91,6.12-9.37,4.09-17.54,9.67-24.5,16.76-6.97,7.09-12.49,15.38-16.57,24.86-4.09,9.49-6.13,19.52-6.13,30.09s2.04,20.96,6.13,30.45c4.08,9.49,9.6,17.72,16.57,24.68,6.97,6.97,15.14,12.49,24.5,16.58,9.37,4.08,19.33,6.12,29.91,6.12,14.89,0,28.52-3.84,40.9-11.53,12.37-7.69,22.04-18.02,29.01-30.99l-37.47-18.74c-3.37,5.77-7.87,10.45-13.51,14.05-5.65,3.6-11.95,5.41-18.92,5.41-2.65,0-5.17-.3-7.57-.9-2.41-.6-4.68-1.26-6.85-1.98,6.24-3.84,14.29-8.83,24.14-14.95,9.85-6.12,19.69-12.19,29.55-18.2m-74.59-2.88c-.24-4.56.6-8.88,2.52-12.97,1.92-4.08,4.5-7.62,7.75-10.63,3.24-3,7.03-5.34,11.35-7.03,4.32-1.68,8.88-2.52,13.69-2.52,4.56,0,8.89,1.21,12.97,3.6-9.13,5.53-17.36,10.57-24.68,15.13-7.33,4.57-15.2,9.37-23.6,14.41"/>
    <path class="cls-1" d="m857.91,58.74c-6.25-6.24-13.57-11.17-21.98-14.77-8.41-3.6-17.42-5.41-27.02-5.41-5.05,0-9.79.48-14.23,1.44-4.45.96-8.83,2.41-13.15,4.32v-2.16h-41.8v147.02h41.8v-81.44c0-7.68,2.64-14.17,7.93-19.46,5.28-5.28,11.77-7.93,19.46-7.93s14.17,2.65,19.46,7.93c5.28,5.29,7.93,11.77,7.93,19.46v81.44h41.8v-81.44c0-9.6-1.8-18.61-5.41-27.02-3.6-8.41-8.53-15.73-14.77-21.98"/>
    <path class="cls-1" d="m978.05,117.83c3.36-5.76,6.85-11.59,10.45-17.48,3.61-5.88,7.08-11.71,10.45-17.47,7.93-13.21,16.22-27.03,24.86-41.44h-136.74c8.55,4.83,20.19,16.02,24.69,41.8h38.54c-2.41,3.85-5.17,8.29-8.29,13.33-3.12,5.04-6.36,10.45-9.73,16.21-3.37,5.77-6.85,11.59-10.45,17.48-3.6,5.89-7.09,11.71-10.45,17.48-7.93,13.21-16.1,27.02-24.5,41.44h134.04v-41.8h-60.53c2.4-3.84,5.1-8.29,8.11-13.33,3-5.04,6.18-10.45,9.55-16.22"/>
    <path class="cls-1" d="m1056.14,149.62c-5.53,0-10.15,1.86-13.88,5.59-3.73,3.73-5.58,8.35-5.58,13.87s1.86,10.15,5.58,13.87c3.72,3.73,8.34,5.59,13.88,5.59,5.04,0,9.42-1.86,13.15-5.59,3.72-3.72,5.59-8.34,5.59-13.87s-1.86-10.15-5.59-13.87c-3.73-3.72-8.11-5.59-13.15-5.59"/>
    <rect class="cls-1" x="1091.86" y="41.88" width="42.52" height="147.74"/>
    <path class="cls-1" d="m1286.28,81.16c-3.6-8.41-8.53-15.73-14.77-21.98-6.25-6.24-13.57-11.17-21.98-14.77-8.41-3.6-17.42-5.41-27.03-5.41-5.05,0-9.79.48-14.23,1.44-4.45.96-8.83,2.4-13.15,4.32v-2.16h-41.8v147.01h41.8v-81.44c0-7.68,2.64-14.17,7.93-19.46,5.28-5.28,11.77-7.93,19.46-7.93s14.17,2.65,19.46,7.93c5.28,5.29,7.93,11.77,7.93,19.46v81.44h41.8v-81.44c0-9.6-1.8-18.61-5.4-27.03"/>
    <path class="cls-1" d="m1130.35.36c-3.53.89-9.53,7.04-12.02,9.9-1.59,1.82-3.09,4.71-4.54,6.24-.25.26-.32.72-.84.59-.44-.11-4.42-6.09-5.39-7.19-2.2-2.5-7.67-8.11-10.61-9.15-12.01-4.26-20.27,12-7.78,18.92l4.29,2.14h12.63c-3-.59-6.66-1.93-7.93-2.5-3.82-1.71-8-5-4.23-9.39,4.2-4.88,9.71.96,12.56,4.29.91,1.06,5.03,6.21,3.69,7.46-.05.05-.11.09-.18.14h6.27c-.07-.04-.13-.08-.18-.14-1.34-1.25,2.78-6.41,3.69-7.46,2.85-3.33,8.36-9.17,12.56-4.29,3.77,4.39-.4,7.67-4.23,9.39-1.27.57-4.93,1.91-7.93,2.5h12.58l6.79-3.64c8.41-7.24,1.54-20.5-9.19-17.81"/>
    <polygon class="cls-1" points="322.72 270.46 322.72 222.6 351.4 222.6 351.4 232.62 332.74 232.62 332.74 240.91 344.32 240.91 344.32 250.93 332.74 250.93 332.74 270.46 322.72 270.46"/>
    <path class="cls-1" d="m357.8,232.01c-1.5,0-2.74-.52-3.72-1.55-.98-1.04-1.47-2.25-1.47-3.63,0-1.5.49-2.74,1.47-3.72.98-.98,2.22-1.47,3.72-1.47,1.38,0,2.56.49,3.54,1.47s1.47,2.22,1.47,3.72c0,1.38-.49,2.59-1.47,3.63-.98,1.04-2.16,1.55-3.54,1.55m5.01,3.28h-10.2v35.42h10.2v-35.42Z"/>
    <path class="cls-1" d="m393.48,270.72v-19.52c0-1.84-.63-3.4-1.9-4.66-1.27-1.27-2.82-1.9-4.67-1.9s-3.4.63-4.66,1.9c-1.27,1.27-1.9,2.82-1.9,4.66v19.52h-10.02v-35.25h10.02v.52c1.04-.46,2.09-.81,3.15-1.04,1.07-.23,2.2-.35,3.41-.35,2.3,0,4.46.43,6.48,1.3,2.02.86,3.77,2.04,5.27,3.54,1.5,1.5,2.68,3.25,3.54,5.27.86,2.02,1.3,4.18,1.3,6.48v19.52h-10.02Z"/>
    <path class="cls-1" d="m436.5,270.72v-1.55c-2.59,1.38-5.47,2.07-8.64,2.07-2.59,0-5.03-.49-7.3-1.47-2.28-.98-4.25-2.3-5.92-3.97-1.67-1.67-3-3.64-3.98-5.92-.98-2.27-1.47-4.71-1.47-7.3s.49-4.94,1.47-7.21c.98-2.28,2.3-4.26,3.98-5.96,1.67-1.7,3.64-3.04,5.92-4.02,2.27-.98,4.71-1.47,7.3-1.47,1.55,0,3.05.2,4.49.61,1.44.4,2.82.95,4.15,1.64v-13.3h10.02v47.86h-10.02Zm-8.64-9.5c1.15,0,2.26-.22,3.33-.65,1.07-.43,1.99-1.04,2.76-1.82.78-.78,1.4-1.7,1.86-2.77.46-1.06.69-2.2.69-3.41s-.23-2.26-.69-3.33c-.46-1.07-1.08-1.99-1.86-2.76-.78-.78-1.7-1.4-2.76-1.86-1.07-.46-2.17-.69-3.33-.69-1.21,0-2.35.23-3.41.69s-1.99,1.08-2.76,1.86c-.78.78-1.38,1.7-1.82,2.76-.43,1.07-.65,2.17-.65,3.33,0,2.42.83,4.46,2.51,6.13,1.67,1.67,3.72,2.51,6.13,2.51"/>
    <path class="cls-1" d="m486.53,270.46v-20.39l-15.55-27.47h11.58c.63,1.15,1.34,2.39,2.12,3.72.78,1.32,1.56,2.69,2.33,4.1.78,1.41,1.55,2.81,2.33,4.19.78,1.38,1.51,2.68,2.2,3.89.69-1.21,1.43-2.51,2.2-3.89.78-1.38,1.55-2.78,2.33-4.19.78-1.41,1.55-2.78,2.33-4.1.78-1.33,1.48-2.56,2.12-3.72h11.4l-15.38,27.47v20.39h-10.02Z"/>
    <path class="cls-1" d="m526.35,271.75c-2.54,0-4.94-.49-7.21-1.47-2.28-.98-4.26-2.3-5.96-3.97-1.7-1.67-3.04-3.64-4.02-5.92-.98-2.28-1.47-4.71-1.47-7.3s.49-4.94,1.47-7.21c.98-2.27,2.32-4.26,4.02-5.96,1.7-1.7,3.69-3.04,5.96-4.02,2.27-.98,4.68-1.47,7.21-1.47s5.02.49,7.3,1.47c2.28.98,4.25,2.32,5.92,4.02,1.67,1.7,2.99,3.69,3.97,5.96.98,2.28,1.47,4.68,1.47,7.21s-.49,5.03-1.47,7.3c-.98,2.28-2.3,4.25-3.97,5.92-1.67,1.67-3.64,2.99-5.92,3.97-2.28.98-4.71,1.47-7.3,1.47m8.64-18.66c0-1.15-.23-2.25-.69-3.28-.46-1.04-1.08-1.95-1.86-2.72-.78-.78-1.68-1.38-2.72-1.81-1.04-.43-2.16-.65-3.37-.65s-2.26.22-3.33.65c-1.07.43-1.99,1.04-2.76,1.81-.78.78-1.4,1.68-1.86,2.72-.46,1.04-.69,2.13-.69,3.28,0,1.21.23,2.35.69,3.41.46,1.07,1.08,1.99,1.86,2.76.78.78,1.7,1.38,2.76,1.81,1.07.43,2.17.65,3.33.65,1.21,0,2.33-.22,3.37-.65,1.04-.43,1.94-1.04,2.72-1.81.78-.78,1.4-1.7,1.86-2.76.46-1.07.69-2.2.69-3.41"/>
    <path class="cls-1" d="m573.61,270.72v-.86c-1.04.46-2.1.78-3.2.95-1.1.17-2.22.26-3.37.26-2.3,0-4.46-.43-6.48-1.3-2.02-.86-3.77-2.04-5.27-3.54-1.5-1.5-2.68-3.25-3.54-5.27-.86-2.01-1.3-4.18-1.3-6.48v-19.18h10.02v19.18c0,1.84.63,3.4,1.9,4.66,1.27,1.27,2.82,1.9,4.66,1.9s3.47-.69,4.71-2.07c1.24-1.38,1.86-3.17,1.86-5.36v-18.14h10.02v35.25h-10.02Z"/>
    <path class="cls-1" d="m591.15,270.72v-35.25h10.02v.86c2.3-1.15,4.84-1.73,7.6-1.73s5.59.63,8.12,1.9l-4.66,8.98c-.52-.35-1.07-.58-1.64-.69-.58-.11-1.18-.17-1.81-.17-1.04,0-2.02.2-2.94.6-.92.4-1.73.95-2.42,1.64-.69.69-1.24,1.5-1.64,2.42-.4.92-.6,1.9-.6,2.94v18.49h-10.02Z"/>
    <path class="cls-1" d="m672.8,270.46c-.29-.69-.59-1.41-.91-2.16-.32-.75-.65-1.53-.99-2.33h-18.14c-.35.81-.68,1.58-.99,2.33-.32.75-.62,1.47-.91,2.16h-11.06l22.12-49.42,21.94,49.42h-11.06Zm-10.89-24.71l-4.67,10.19h9.16l-4.49-10.19Z"/>
    <path class="cls-1" d="m720.23,261.04c-1.67,3.11-3.99,5.59-6.95,7.43-2.97,1.85-6.23,2.77-9.81,2.77-2.54,0-4.92-.49-7.17-1.47-2.25-.98-4.2-2.3-5.88-3.97-1.67-1.67-2.99-3.64-3.97-5.92-.98-2.27-1.47-4.71-1.47-7.3s.49-4.94,1.47-7.21c.98-2.28,2.3-4.26,3.97-5.96,1.67-1.7,3.63-3.04,5.88-4.02,2.25-.98,4.64-1.47,7.17-1.47,3.22,0,6.19.81,8.9,2.42,2.71,1.61,4.92,3.86,6.65,6.74.34.64.66,1.21.95,1.73.29.52.55.98.78,1.38.23.46.46.86.69,1.21-3,1.78-5.85,3.51-8.55,5.18-2.36,1.44-4.72,2.9-7.08,4.36-2.36,1.47-4.29,2.66-5.79,3.58.52.17,1.07.33,1.64.48.57.14,1.18.22,1.81.22,1.67,0,3.18-.43,4.54-1.3,1.35-.86,2.43-1.99,3.24-3.37l8.98,4.49Zm-25.23-9.16c2.02-1.21,3.9-2.36,5.66-3.46,1.76-1.09,3.73-2.3,5.92-3.63-.98-.57-2.02-.86-3.11-.86-1.15,0-2.25.2-3.28.6-1.04.4-1.94.97-2.72,1.68-.78.72-1.4,1.57-1.86,2.55-.46.98-.66,2.02-.6,3.11"/>
    <path class="cls-1" d="m735.44,259.83c.52,1.27,1.44,1.9,2.76,1.9.81,0,1.5-.26,2.07-.78.57-.52.86-1.18.86-1.99,0-1.21-.92-1.9-2.76-2.08-2.02-.11-3.75-.52-5.18-1.21-1.44-.69-2.64-1.56-3.59-2.59-.95-1.04-1.66-2.19-2.12-3.46-.46-1.27-.69-2.53-.69-3.8,0-1.55.3-3.02.91-4.41.6-1.38,1.43-2.59,2.46-3.63,1.04-1.04,2.25-1.86,3.63-2.46,1.38-.6,2.85-.91,4.41-.91,1.67,0,3.24.36,4.71,1.08,1.47.72,2.78,1.68,3.93,2.89l-7.6,6.57c-.23-.23-.58-.34-1.04-.34-.35,0-.66.11-.95.34-.29.23-.43.52-.43.86s.24.6.73.78c.49.17.99.26,1.51.26,1.96.17,3.7.65,5.23,1.43,1.53.78,2.79,1.73,3.8,2.85,1.01,1.12,1.77,2.36,2.29,3.72.52,1.35.78,2.72.78,4.1,0,1.79-.35,3.46-1.04,5.01-.69,1.55-1.63,2.91-2.81,4.06-1.18,1.15-2.55,2.06-4.1,2.72-1.55.66-3.23.99-5.01.99-2.76,0-5.26-.79-7.47-2.38-2.22-1.58-3.82-3.73-4.79-6.44l9.5-3.11Z"/>
    <polygon class="cls-1" points="758.93 270.72 758.93 245.49 752.54 245.49 752.54 235.47 758.93 235.47 758.93 225.45 768.96 225.45 768.96 235.47 777.77 235.47 777.77 245.49 768.96 245.49 768.96 270.72 758.93 270.72"/>
    <path class="cls-1" d="m806.02,270.72v-19.52c0-1.84-.64-3.4-1.9-4.66-1.27-1.27-2.82-1.9-4.67-1.9s-3.4.63-4.67,1.9c-1.27,1.27-1.9,2.82-1.9,4.66v19.52h-10.02v-47.86h10.02v13.13c2.19-.92,4.38-1.38,6.57-1.38,2.3,0,4.46.43,6.48,1.3,2.02.86,3.77,2.04,5.27,3.54,1.5,1.5,2.68,3.25,3.54,5.27.86,2.02,1.3,4.18,1.3,6.48v19.52h-10.02Z"/>
    <path class="cls-1" d="m856.13,261.04c-1.67,3.11-3.99,5.59-6.96,7.43-2.97,1.85-6.23,2.77-9.81,2.77-2.54,0-4.92-.49-7.17-1.47-2.25-.98-4.2-2.3-5.88-3.97-1.67-1.67-3-3.64-3.97-5.92-.98-2.27-1.47-4.71-1.47-7.3s.49-4.94,1.47-7.21c.98-2.28,2.3-4.26,3.97-5.96,1.67-1.7,3.63-3.04,5.88-4.02,2.25-.98,4.64-1.47,7.17-1.47,3.22,0,6.19.81,8.9,2.42,2.71,1.61,4.92,3.86,6.65,6.74.34.64.66,1.21.95,1.73.29.52.55.98.78,1.38.23.46.46.86.69,1.21-3,1.78-5.85,3.51-8.55,5.18-2.36,1.44-4.72,2.9-7.08,4.36-2.36,1.47-4.29,2.66-5.79,3.58.52.17,1.06.33,1.64.48.58.14,1.18.22,1.81.22,1.67,0,3.18-.43,4.54-1.3,1.35-.86,2.43-1.99,3.24-3.37l8.99,4.49Zm-25.23-9.16c2.02-1.21,3.9-2.36,5.66-3.46,1.76-1.09,3.73-2.3,5.92-3.63-.98-.57-2.02-.86-3.11-.86-1.15,0-2.25.2-3.28.6-1.04.4-1.95.97-2.72,1.68-.78.72-1.4,1.57-1.86,2.55-.46.98-.66,2.02-.6,3.11"/>
    <polygon class="cls-1" points="865.81 270.72 865.81 245.49 859.41 245.49 859.41 235.47 865.81 235.47 865.81 225.45 875.83 225.45 875.83 235.47 884.64 235.47 884.64 245.49 875.83 245.49 875.83 270.72 865.81 270.72"/>
    <path class="cls-1" d="m893.71,232.01c-1.5,0-2.74-.52-3.71-1.55-.98-1.04-1.47-2.25-1.47-3.63,0-1.5.49-2.74,1.47-3.72.98-.98,2.22-1.47,3.71-1.47,1.38,0,2.56.49,3.54,1.47.98.98,1.47,2.22,1.47,3.72,0,1.38-.49,2.59-1.47,3.63-.98,1.04-2.16,1.55-3.54,1.55m5.01,3.28h-10.19v35.42h10.19v-35.42Z"/>
    <path class="cls-1" d="m940.63,261.04c-1.67,3.23-3.99,5.73-6.95,7.52-2.97,1.79-6.23,2.68-9.81,2.68-2.53,0-4.92-.49-7.17-1.47-2.25-.98-4.21-2.3-5.88-3.97-1.67-1.67-2.99-3.64-3.97-5.92-.98-2.27-1.47-4.71-1.47-7.3s.49-4.94,1.47-7.21c.98-2.28,2.3-4.26,3.97-5.96,1.67-1.7,3.63-3.04,5.88-4.02,2.25-.98,4.64-1.47,7.17-1.47,3.23,0,6.28.81,9.16,2.42l-4.84,8.81c-.69-.35-1.38-.63-2.07-.86-.69-.23-1.44-.34-2.25-.34-1.15,0-2.25.23-3.28.69-1.04.46-1.94,1.08-2.72,1.86-.78.78-1.38,1.7-1.81,2.77-.43,1.07-.65,2.17-.65,3.33,0,1.21.22,2.35.65,3.41.43,1.07,1.04,1.99,1.81,2.77.78.78,1.68,1.38,2.72,1.81,1.04.43,2.13.65,3.28.65,1.67,0,3.18-.43,4.54-1.3,1.35-.86,2.43-1.99,3.24-3.37l8.98,4.49Z"/>
    <path class="cls-1" d="m953.24,259.83c.52,1.27,1.44,1.9,2.76,1.9.81,0,1.5-.26,2.07-.78.58-.52.86-1.18.86-1.99,0-1.21-.92-1.9-2.76-2.08-2.02-.11-3.74-.52-5.18-1.21-1.44-.69-2.64-1.56-3.59-2.59-.95-1.04-1.66-2.19-2.12-3.46-.46-1.27-.69-2.53-.69-3.8,0-1.55.3-3.02.91-4.41.6-1.38,1.43-2.59,2.46-3.63,1.04-1.04,2.25-1.86,3.63-2.46,1.38-.6,2.85-.91,4.41-.91,1.67,0,3.24.36,4.71,1.08,1.47.72,2.78,1.68,3.93,2.89l-7.6,6.57c-.23-.23-.58-.34-1.04-.34-.35,0-.66.11-.95.34-.29.23-.43.52-.43.86s.24.6.73.78c.49.17.99.26,1.51.26,1.96.17,3.7.65,5.23,1.43,1.53.78,2.79,1.73,3.8,2.85,1.01,1.12,1.77,2.36,2.29,3.72.52,1.35.78,2.72.78,4.1,0,1.79-.35,3.46-1.04,5.01-.69,1.55-1.63,2.91-2.81,4.06-1.18,1.15-2.55,2.06-4.1,2.72-1.55.66-3.22.99-5.01.99-2.76,0-5.26-.79-7.47-2.38-2.22-1.58-3.82-3.73-4.8-6.44l9.5-3.11Z"/>
  </g>
</svg>